<svg width="24" height="24" xmlns="http://www.w3.org/2000/svg"><path fill-rule="evenodd" clip-rule="evenodd" d="M7.33 2h9.339C20.07 2 21.99 3.93 22 7.33v9.34c0 3.4-1.93 5.33-5.331 5.33H7.33C3.929 22 2 20.07 2 16.67V7.33C2 3.93 3.929 2 7.33 2zm4.719 15.86c.431 0 .79-.32.83-.75V6.92a.815.815 0 00-.379-.79.84.84 0 00-1.281.79v10.19c.051.43.41.75.83.75zm4.601 0c.42 0 .779-.32.83-.75v-3.28a.839.839 0 00-1.28-.79.806.806 0 00-.38.79v3.28c.04.43.399.75.83.75zm-8.431-.75a.827.827 0 01-.83.75c-.43 0-.79-.32-.829-.75V10.2a.84.84 0 01.39-.79c.269-.17.61-.17.88 0 .269.17.42.48.389.79v6.91z"/></svg>