<svg width="24" height="24" xmlns="http://www.w3.org/2000/svg"><path fill-rule="evenodd" clip-rule="evenodd" d="M7.638 3.395c-2.577 0-4.242 1.767-4.242 4.493v8.214c0 .765.142 1.448.385 2.04l.538-.656 1.439-1.752c.692-.79 1.991-1.967 3.696-1.255.374.155.706.368 1.011.563l.089.056c.573.383.91.563 1.26.534.145-.02.281-.063.41-.143.487-.3 1.748-2.088 2.126-2.623.055-.079.092-.13.104-.146 1.09-1.42 2.77-1.8 4.17-.96.188.111 1.535 1.053 1.981 1.43V7.889c0-2.726-1.665-4.493-4.251-4.493H7.638zM16.354 2C19.731 2 22 4.362 22 7.888v8.214c0 .09-.01.172-.019.255a3.055 3.055 0 00-.02.287c-.002.048-.003.097-.007.146-.002.018-.006.037-.01.055-.003.018-.007.037-.009.056a6.805 6.805 0 01-.155.904c-.017.073-.036.143-.056.214l-.004.016c-.08.282-.174.55-.287.808-.02.043-.04.085-.062.127l-.041.085c-.122.244-.254.48-.407.698-.028.04-.058.078-.089.116l-.059.076a5.073 5.073 0 01-.513.581c-.038.036-.078.069-.119.102l-.075.061a5.05 5.05 0 01-.607.462c-.047.03-.098.054-.148.08-.032.015-.065.031-.096.048a5.316 5.316 0 01-.687.334c-.059.022-.12.038-.183.054a2.488 2.488 0 00-.132.036l-.065.02a5.13 5.13 0 01-.667.175c-.135.024-.28.033-.423.043a4.044 4.044 0 00-.382.034c-.106.012-.212.026-.324.026H7.638c-.376 0-.735-.039-1.082-.096l-.037-.006c-1.353-.233-2.476-.886-3.263-1.87-.005 0-.008-.004-.01-.01a.046.046 0 00-.008-.01C2.447 19.014 2 17.674 2 16.102V7.888C2 4.362 4.271 2 7.638 2h8.716zm-5.353 6.515C11 9.87 9.867 11 8.505 11A2.52 2.52 0 016.06 8.994 2.409 2.409 0 016 8.469a2.475 2.475 0 014.26-1.707c.456.451.74 1.074.74 1.753z"/></svg>