<svg viewBox="0 0 36 36" xmlns="http://www.w3.org/2000/svg"><path fill-rule="evenodd" clip-rule="evenodd" d="M18 0C8.059 0 0 8.059 0 18s8.059 18 18 18 18-8.059 18-18S27.941 0 18 0zm-3.958 8.458c1.024-.047 1.352-.058 3.959-.058h-.003c2.608 0 2.934.011 3.958.058 1.022.047 1.72.209 2.332.446a4.692 4.692 0 011.7 1.107c.534.534.862 1.07 1.108 1.7.236.611.398 1.309.446 2.33.046 1.025.058 1.352.058 3.96 0 2.606-.012 2.933-.058 3.957-.048 1.021-.21 1.72-.446 2.33a4.713 4.713 0 01-1.108 1.7 4.696 4.696 0 01-1.7 1.108c-.61.238-1.309.4-2.33.446-1.025.047-1.35.058-3.958.058-2.607 0-2.934-.011-3.958-.058-1.022-.047-1.72-.208-2.33-.446a4.7 4.7 0 01-1.7-1.108 4.704 4.704 0 01-1.108-1.7c-.237-.61-.399-1.308-.446-2.33C8.412 20.934 8.4 20.608 8.4 18c0-2.607.012-2.934.058-3.959.046-1.021.208-1.719.446-2.33a4.713 4.713 0 011.108-1.7 4.701 4.701 0 011.7-1.107c.61-.237 1.308-.4 2.33-.446z"/><path fill-rule="evenodd" clip-rule="evenodd" d="M17.14 10.13H18c2.563 0 2.867.009 3.88.055.935.042 1.443.199 1.782.33.448.174.767.382 1.103.718.336.336.544.656.718 1.104.132.338.288.846.33 1.782.047 1.012.057 1.316.057 3.878 0 2.562-.01 2.866-.056 3.878-.043.936-.2 1.444-.33 1.782a2.968 2.968 0 01-.72 1.103 2.969 2.969 0 01-1.102.718c-.338.132-.847.288-1.783.33-1.012.047-1.316.057-3.88.057-2.563 0-2.866-.01-3.878-.056-.936-.043-1.444-.2-1.783-.331a2.973 2.973 0 01-1.104-.718 2.975 2.975 0 01-.718-1.104c-.132-.337-.288-.845-.33-1.781-.047-1.012-.056-1.317-.056-3.88 0-2.564.01-2.866.055-3.878.043-.936.2-1.444.33-1.783.175-.448.383-.768.72-1.104a2.98 2.98 0 011.103-.718c.338-.132.847-.288 1.783-.331.885-.04 1.229-.052 3.018-.054v.002zm5.985 1.593a1.152 1.152 0 100 2.305 1.152 1.152 0 000-2.305zM13.071 18a4.93 4.93 0 119.86 0 4.93 4.93 0 01-9.86 0z"/><path d="M18 14.8a3.2 3.2 0 110 6.4 3.2 3.2 0 010-6.4z"/></svg>