<svg width="24" height="24" xmlns="http://www.w3.org/2000/svg"><path fill-rule="evenodd" clip-rule="evenodd" d="M7.33 2h9.339C20.07 2 21.99 3.93 22 7.33v9.34c0 3.4-1.93 5.33-5.331 5.33H7.33C3.929 22 2 20.07 2 16.67V7.33C2 3.93 3.929 2 7.33 2zm6.352 12.404c0-.572-.349-.857-1.371-1.105v2.165c.92-.076 1.371-.476 1.371-1.06zm-3.269-4.012c0 .514.375.844 1.263 1.08V9.37c-.825.083-1.263.502-1.263 1.022zm1.898-1.016v2.241l.495.108c1.74.394 2.647 1.092 2.647 2.482 0 1.606-1.314 2.57-3.142 2.679v1.022h-.635v-1.016c-1.809-.089-3.123-1.028-3.167-2.621h1.695c.107.66.577 1.11 1.472 1.193v-2.31l-.47-.109c-1.663-.374-2.57-1.117-2.57-2.488 0-1.53 1.27-2.52 3.04-2.615V6.92h.635v1.028c1.79.114 2.958 1.105 3.015 2.622h-1.688c-.09-.705-.59-1.105-1.327-1.194z"/></svg>