<svg viewBox="0 0 36 36" xmlns="http://www.w3.org/2000/svg"><path fill-rule="evenodd" clip-rule="evenodd" d="M0 18c0 9.941 8.059 18 18 18s18-8.059 18-18S27.941 0 18 0 0 8.059 0 18zm28.201-3.22a2.996 2.996 0 012.999 2.986 2.98 2.98 0 01-1.466 2.56c.036.248.056.5.056.754 0 4.246-5.178 7.7-11.543 7.7-6.365 0-11.542-3.454-11.542-7.7 0-.274.022-.545.064-.812A2.979 2.979 0 015.4 17.766a2.996 2.996 0 014.93-2.281c1.991-1.254 4.648-2.042 7.577-2.099l1.713-5.389a.577.577 0 01.682-.386l4.435 1.039a2.489 2.489 0 012.25-1.43c1.37 0 2.486 1.11 2.486 2.474a2.483 2.483 0 01-2.485 2.475 2.482 2.482 0 01-2.482-2.392l-3.947-.925-1.447 4.552c2.751.137 5.235.919 7.114 2.12a2.991 2.991 0 011.975-.744z"/><path d="M29.417 19.14c-.422-1.082-1.19-2.07-2.218-2.913a1.842 1.842 0 012.845 1.539c0 .547-.243 1.038-.627 1.374zM26.987 8.371c.734 0 1.331.595 1.331 1.325a1.33 1.33 0 01-1.33 1.325 1.33 1.33 0 01-1.332-1.325c0-.73.597-1.325 1.331-1.325z"/><path fill-rule="evenodd" clip-rule="evenodd" d="M18.247 27.63c5.727 0 10.387-2.938 10.387-6.549a4.245 4.245 0 00-.273-1.488c-.342-.92-.99-1.767-1.876-2.494a8.837 8.837 0 00-.956-.682c-1.875-1.165-4.447-1.886-7.282-1.886-2.794 0-5.333.7-7.202 1.836a9.11 9.11 0 00-.957.668c-.923.737-1.599 1.603-1.95 2.545a4.327 4.327 0 00-.279 1.501c0 3.612 4.66 6.55 10.388 6.55zm-3.799-9.716c.975 0 1.764.813 1.764 1.783s-.79 1.755-1.764 1.756c-.973 0-1.79-.787-1.79-1.756 0-.97.816-1.783 1.79-1.783zm7.73 0c-.975 0-1.794.812-1.794 1.782s.82 1.757 1.793 1.757a1.76 1.76 0 001.765-1.757c0-.97-.79-1.783-1.765-1.783zm-3.865 7.005c1.612 0 2.713-.315 3.366-.965a.58.58 0 01.818 0 .573.573 0 010 .814c-.881.875-2.25 1.302-4.184 1.302l-.007-.001-.007-.001h-.007l-.007.002c-1.934 0-3.303-.427-4.182-1.303a.572.572 0 010-.813.58.58 0 01.816 0c.653.65 1.754.965 3.366.965l.007.001a.04.04 0 00.007 0h.014z"/><path d="M6.555 17.765a1.842 1.842 0 012.783-1.576c-1.029.833-1.799 1.812-2.233 2.882a1.823 1.823 0 01-.55-1.306z"/></svg>