<svg width="24" height="24" xmlns="http://www.w3.org/2000/svg"><path d="M16.34 1.5H7.67v1h8.67v-1zm-8.67 0c-1.816 0-3.37.64-4.467 1.787C2.107 4.43 1.5 6.042 1.5 7.92h1c0-1.662.533-3.011 1.425-3.942C4.815 3.05 6.096 2.5 7.67 2.5v-1zM1.5 7.92v8.171h1V7.92h-1zm0 8.171c0 1.873.607 3.481 1.703 4.624C4.3 21.86 5.853 22.5 7.67 22.5v-1c-1.574 0-2.856-.55-3.745-1.477-.892-.93-1.425-2.276-1.425-3.932h-1zM7.67 22.5h8.67v-1H7.67v1zm8.67 0c1.817 0 3.367-.64 4.462-1.785 1.094-1.144 1.698-2.751 1.698-4.624h-1c0 1.656-.531 3.003-1.42 3.932-.887.927-2.166 1.477-3.74 1.477v1zm6.16-6.409V7.92h-1v8.171h1zm0-8.171c0-1.878-.604-3.488-1.697-4.633C19.707 2.14 18.157 1.5 16.34 1.5v1c1.573 0 2.853.55 3.74 1.478.889.93 1.42 2.28 1.42 3.942h1z"/></svg>