<svg viewBox="0 0 36 36" xmlns="http://www.w3.org/2000/svg"><path fill-rule="evenodd" clip-rule="evenodd" d="M18 0C8.059 0 0 8.059 0 18s8.059 18 18 18 18-8.059 18-18S27.941 0 18 0zm-.501 15.254l-.038-.623c-.113-1.615.881-3.09 2.455-3.661.58-.204 1.561-.229 2.203-.051.252.076.73.33 1.07.56l.618.419.68-.216c.377-.115.88-.305 1.107-.433.214-.114.403-.178.403-.14 0 .217-.465.954-.856 1.36-.529.573-.377.624.693.242.642-.216.654-.216.529.026-.076.127-.466.572-.882.978-.705.7-.743.776-.743 1.36 0 .903-.428 2.784-.856 3.814-.793 1.932-2.493 3.928-4.193 4.932-2.392 1.41-5.577 1.766-8.259.94-.894-.28-2.43-.991-2.43-1.118 0-.038.466-.09 1.032-.102a7.088 7.088 0 003.375-.94l.68-.407-.781-.267c-1.108-.382-2.103-1.259-2.354-2.085-.076-.267-.05-.28.654-.28l.73-.012-.616-.293c-.73-.368-1.398-.991-1.725-1.627-.24-.457-.542-1.614-.454-1.703.026-.038.29.038.592.14.869.318.982.241.479-.292-.945-.966-1.234-2.403-.781-3.763l.214-.61.831.826c1.7 1.665 3.702 2.657 5.993 2.95l.63.075z"/></svg>