<svg viewBox="0 0 36 36" xmlns="http://www.w3.org/2000/svg"><path fill-rule="evenodd" clip-rule="evenodd" d="M18 0C8.059 0 0 8.059 0 18s8.059 18 18 18 18-8.059 18-18S27.941 0 18 0zm7.501 11.812a2.438 2.438 0 011.698 1.743c.401 1.537.401 4.745.401 4.745s0 3.208-.401 4.745a2.438 2.438 0 01-1.698 1.743C24.004 25.2 18 25.2 18 25.2s-6.004 0-7.501-.412A2.438 2.438 0 018.8 23.045C8.4 21.508 8.4 18.3 8.4 18.3s0-3.208.401-4.745a2.438 2.438 0 011.698-1.743C11.996 11.4 18 11.4 18 11.4s6.004 0 7.501.412z"/><path d="M16.2 21.6v-6l4.8 3-4.8 3z"/></svg>